<!DOCTYPE svg PUBLIC "-//W3C//DTD SVG 1.1//EN" "http://www.w3.org/Graphics/SVG/1.1/DTD/svg11.dtd">
<!-- Uploaded to: SVG Repo, www.svgrepo.com, Transformed by: SVG Repo Mixer Tools -->
<svg fill="#000080" height="800px" width="800px" version="1.1" id="Layer_1" xmlns="http://www.w3.org/2000/svg" xmlns:xlink="http://www.w3.org/1999/xlink" viewBox="-24.21 -24.21 290.55 290.55" xml:space="preserve" transform="rotate(270)" stroke="#000080" stroke-width="0.00242133">
<g id="SVGRepo_bgCarrier" stroke-width="0"/>
<g id="SVGRepo_tracerCarrier" stroke-linecap="round" stroke-linejoin="round" stroke="#CCCCCC" stroke-width="9.201054000000001"> <path id="XMLID_241_" d="M237.739,4.394c-5.857-5.858-15.355-5.858-21.213,0L68.033,152.887l-42.427-42.426 c-4.291-4.29-10.742-5.572-16.347-3.252C3.654,109.531,0,115,0,121.067v106.065c0,8.284,6.716,15,15,15h106.066 c0.007-0.001,0.012-0.001,0.02,0c8.285,0,15-6.716,15-15c0-4.377-1.874-8.316-4.864-11.059l-41.976-41.975L237.739,25.607 C243.598,19.749,243.598,10.252,237.739,4.394z M30,212.133V157.28l54.853,54.852H30z"/> </g>
<g id="SVGRepo_iconCarrier"> <path id="XMLID_241_" d="M237.739,4.394c-5.857-5.858-15.355-5.858-21.213,0L68.033,152.887l-42.427-42.426 c-4.291-4.29-10.742-5.572-16.347-3.252C3.654,109.531,0,115,0,121.067v106.065c0,8.284,6.716,15,15,15h106.066 c0.007-0.001,0.012-0.001,0.02,0c8.285,0,15-6.716,15-15c0-4.377-1.874-8.316-4.864-11.059l-41.976-41.975L237.739,25.607 C243.598,19.749,243.598,10.252,237.739,4.394z M30,212.133V157.28l54.853,54.852H30z"/> </g>
</svg>